<svg width="776" height="474" viewBox="0 0 776 474" fill="none" xmlns="http://www.w3.org/2000/svg">
<g clip-path="url(#clip0_6_40)">
<path d="M408.9 58.5054C427.454 108.949 423.945 140.574 398.375 153.382C360.019 172.594 268.817 180.278 230.695 221.954C192.574 263.628 76.3377 231.411 56.4586 159.884C36.5794 88.3576 0.787018 -21.8883 189.524 -21.8883C315.35 -21.8883 388.474 4.90907 408.9 58.5054Z" fill="#FFFA72"/>
<path d="M717.864 158.102C769.815 299.344 759.991 387.896 688.395 423.757C580.999 477.55 325.633 499.067 218.891 615.758C112.152 732.446 -213.31 642.237 -268.971 441.963C-324.633 241.688 -424.852 -67 103.611 -67C455.924 -67 660.672 8.03257 717.864 158.102Z" fill="#0F225E"/>
<path d="M692.117 149.803C741.285 283.478 731.987 367.285 664.227 401.226C562.584 452.137 320.899 472.501 219.875 582.941C118.854 693.378 -189.172 608.002 -241.852 418.456C-294.532 228.911 -389.382 -63.2407 110.771 -63.2407C444.209 -63.2407 637.989 7.77228 692.117 149.803Z" fill="#1B346C"/>
<path d="M666.37 141.503C712.755 267.611 703.983 346.675 640.058 378.695C544.169 426.724 316.164 445.935 220.858 550.123C125.556 654.31 -165.035 573.766 -214.733 394.95C-264.431 216.133 -353.912 -59.4814 117.93 -59.4814C432.495 -59.4814 615.306 7.51198 666.37 141.503Z" fill="#27457A"/>
<path d="M640.623 133.203C684.225 251.745 675.979 326.065 615.89 356.164C525.754 401.311 311.429 419.37 221.842 517.306C132.258 615.241 -140.898 539.531 -187.614 371.443C-234.33 203.356 -318.442 -55.7221 125.089 -55.7221C420.78 -55.7221 592.622 7.25168 640.623 133.203Z" fill="#335788"/>
<path d="M614.876 124.903C655.695 235.879 647.975 305.455 591.722 333.632C507.339 375.898 306.695 392.804 222.826 484.49C138.96 576.173 -116.76 505.295 -160.495 347.937C-204.229 190.578 -282.972 -51.9628 132.249 -51.9628C409.066 -51.9628 569.939 6.99139 614.876 124.903Z" fill="#3F6896"/>
<path d="M589.129 116.604C627.165 220.013 619.972 284.845 567.553 311.101C488.924 350.485 301.96 366.238 223.809 451.673C145.661 537.105 -92.6233 471.06 -133.376 324.43C-174.128 177.801 -247.502 -48.2035 139.408 -48.2035C397.351 -48.2035 547.256 6.7311 589.129 116.604Z" fill="#4B7AA5"/>
<path d="M563.382 108.304C598.635 204.146 591.968 264.235 543.385 288.57C470.509 325.072 297.225 339.673 224.793 418.856C152.363 498.037 -68.4859 436.824 -106.256 300.924C-144.027 165.023 -212.032 -44.4442 146.568 -44.4442C385.637 -44.4442 524.573 6.4708 563.382 108.304Z" fill="#568BB3"/>
<path d="M537.635 100.004C570.104 188.28 563.964 243.625 519.217 266.039C452.094 299.659 292.491 313.107 225.777 386.039C159.065 458.969 -44.3486 402.589 -79.1371 277.417C-113.926 152.245 -176.562 -40.6848 153.727 -40.6848C373.922 -40.6848 501.89 6.21051 537.635 100.004Z" fill="#629CC1"/>
<path d="M511.888 91.7043C541.574 172.414 535.96 223.015 495.048 243.507C433.679 274.246 287.756 286.541 226.76 353.222C165.767 419.901 -20.2114 368.353 -52.0181 253.91C-83.8248 139.468 -141.093 -36.9255 160.886 -36.9255C362.208 -36.9255 479.207 5.95021 511.888 91.7043Z" fill="#6EAECF"/>
<path d="M486.141 83.4046C513.044 156.548 507.957 202.405 470.88 220.976C415.264 248.833 283.022 259.976 227.744 320.405C172.469 380.832 3.92596 334.117 -24.8989 230.404C-53.7236 126.69 -105.623 -33.1662 168.046 -33.1662C350.493 -33.1662 456.524 5.68992 486.141 83.4046Z" fill="#7ABFDD"/>
<path d="M460.394 75.1048C484.514 140.681 479.953 181.795 446.712 198.445C396.849 223.42 278.287 233.41 228.728 287.588C179.171 341.764 28.0633 299.882 2.22034 206.897C-23.6226 113.913 -70.1526 -29.4069 175.205 -29.4069C338.779 -29.4069 433.84 5.42963 460.394 75.1048Z" fill="#86D1EB"/>
<path d="M434.647 66.8051C455.984 124.815 451.949 161.184 422.543 175.913C378.434 198.007 273.552 206.844 229.711 254.771C185.872 302.696 52.2004 265.646 29.3394 183.391C6.4783 101.135 -34.6829 -25.6476 182.364 -25.6476C327.064 -25.6476 411.157 5.16936 434.647 66.8051Z" fill="#92E2F9"/>
</g>
<defs>
<clipPath id="clip0_6_40">
<rect width="776" height="474" fill="white" transform="matrix(-1 0 0 1 776 0)"/>
</clipPath>
</defs>
</svg>
